<mxfile host="app.diagrams.net" modified="2020-04-23T15:24:20.567Z" agent="5.0 (Windows NT 10.0; WOW64) AppleWebKit/537.36 (KHTML, like Gecko) Chrome/70.0.3538.25 Safari/537.36 Core/1.70.3756.400 QQBrowser/10.5.4039.400" etag="5LGE6QLNLDQ2uDDi0e0c" version="12.9.14" type="github">
  <diagram id="GgOm-Ov9J0ziLJ8iElkV" name="第 1 页">
    <mxGraphModel dx="1515" dy="654" grid="1" gridSize="10" guides="1" tooltips="1" connect="1" arrows="1" fold="1" page="1" pageScale="1" pageWidth="4681" pageHeight="3300" math="0" shadow="0">
      <root>
        <mxCell id="0" />
        <mxCell id="1" parent="0" />
        <mxCell id="KXQV2G5C7RftoU8U8lgx-6" style="rounded=0;orthogonalLoop=1;jettySize=auto;html=1;exitX=0.5;exitY=1;exitDx=0;exitDy=0;entryX=0.13;entryY=-0.033;entryDx=0;entryDy=0;entryPerimeter=0;" edge="1" parent="1" source="KXQV2G5C7RftoU8U8lgx-1" target="KXQV2G5C7RftoU8U8lgx-4">
          <mxGeometry relative="1" as="geometry" />
        </mxCell>
        <mxCell id="KXQV2G5C7RftoU8U8lgx-1" value="微服务" style="rounded=1;whiteSpace=wrap;html=1;" vertex="1" parent="1">
          <mxGeometry x="440" y="620" width="120" height="60" as="geometry" />
        </mxCell>
        <mxCell id="KXQV2G5C7RftoU8U8lgx-7" style="edgeStyle=none;rounded=0;orthogonalLoop=1;jettySize=auto;html=1;exitX=0.5;exitY=1;exitDx=0;exitDy=0;" edge="1" parent="1" source="KXQV2G5C7RftoU8U8lgx-2" target="KXQV2G5C7RftoU8U8lgx-4">
          <mxGeometry relative="1" as="geometry" />
        </mxCell>
        <mxCell id="KXQV2G5C7RftoU8U8lgx-2" value="微服务" style="rounded=1;whiteSpace=wrap;html=1;" vertex="1" parent="1">
          <mxGeometry x="610" y="620" width="120" height="60" as="geometry" />
        </mxCell>
        <mxCell id="KXQV2G5C7RftoU8U8lgx-8" style="edgeStyle=none;rounded=0;orthogonalLoop=1;jettySize=auto;html=1;exitX=0.5;exitY=1;exitDx=0;exitDy=0;entryX=0.87;entryY=0;entryDx=0;entryDy=0;entryPerimeter=0;" edge="1" parent="1" source="KXQV2G5C7RftoU8U8lgx-3" target="KXQV2G5C7RftoU8U8lgx-4">
          <mxGeometry relative="1" as="geometry" />
        </mxCell>
        <mxCell id="KXQV2G5C7RftoU8U8lgx-3" value="微服务" style="rounded=1;whiteSpace=wrap;html=1;" vertex="1" parent="1">
          <mxGeometry x="780" y="620" width="120" height="60" as="geometry" />
        </mxCell>
        <mxCell id="KXQV2G5C7RftoU8U8lgx-4" value="Redis集群" style="rounded=1;whiteSpace=wrap;html=1;" vertex="1" parent="1">
          <mxGeometry x="440" y="770" width="460" height="60" as="geometry" />
        </mxCell>
        <mxCell id="KXQV2G5C7RftoU8U8lgx-16" style="edgeStyle=none;rounded=0;orthogonalLoop=1;jettySize=auto;html=1;exitX=0.5;exitY=1;exitDx=0;exitDy=0;entryX=0.5;entryY=0;entryDx=0;entryDy=0;" edge="1" parent="1" source="KXQV2G5C7RftoU8U8lgx-9" target="KXQV2G5C7RftoU8U8lgx-1">
          <mxGeometry relative="1" as="geometry" />
        </mxCell>
        <mxCell id="KXQV2G5C7RftoU8U8lgx-17" style="edgeStyle=none;rounded=0;orthogonalLoop=1;jettySize=auto;html=1;exitX=0.5;exitY=1;exitDx=0;exitDy=0;" edge="1" parent="1" source="KXQV2G5C7RftoU8U8lgx-9" target="KXQV2G5C7RftoU8U8lgx-2">
          <mxGeometry relative="1" as="geometry" />
        </mxCell>
        <mxCell id="KXQV2G5C7RftoU8U8lgx-18" style="edgeStyle=none;rounded=0;orthogonalLoop=1;jettySize=auto;html=1;exitX=0.5;exitY=1;exitDx=0;exitDy=0;entryX=0.5;entryY=0;entryDx=0;entryDy=0;" edge="1" parent="1" source="KXQV2G5C7RftoU8U8lgx-9" target="KXQV2G5C7RftoU8U8lgx-3">
          <mxGeometry relative="1" as="geometry" />
        </mxCell>
        <mxCell id="KXQV2G5C7RftoU8U8lgx-9" value="Nginx" style="rounded=1;whiteSpace=wrap;html=1;" vertex="1" parent="1">
          <mxGeometry x="610" y="510" width="120" height="60" as="geometry" />
        </mxCell>
        <mxCell id="KXQV2G5C7RftoU8U8lgx-14" style="edgeStyle=none;rounded=0;orthogonalLoop=1;jettySize=auto;html=1;exitX=0.5;exitY=1;exitDx=0;exitDy=0;" edge="1" parent="1" source="KXQV2G5C7RftoU8U8lgx-10">
          <mxGeometry relative="1" as="geometry">
            <mxPoint x="670" y="510" as="targetPoint" />
          </mxGeometry>
        </mxCell>
        <mxCell id="KXQV2G5C7RftoU8U8lgx-10" value="浏览器" style="rounded=1;whiteSpace=wrap;html=1;" vertex="1" parent="1">
          <mxGeometry x="610" y="400" width="120" height="60" as="geometry" />
        </mxCell>
        <mxCell id="KXQV2G5C7RftoU8U8lgx-15" style="edgeStyle=none;rounded=0;orthogonalLoop=1;jettySize=auto;html=1;exitX=0.5;exitY=1;exitDx=0;exitDy=0;entryX=0.5;entryY=0;entryDx=0;entryDy=0;" edge="1" parent="1" source="KXQV2G5C7RftoU8U8lgx-11" target="KXQV2G5C7RftoU8U8lgx-9">
          <mxGeometry relative="1" as="geometry" />
        </mxCell>
        <mxCell id="KXQV2G5C7RftoU8U8lgx-11" value="浏览器" style="rounded=1;whiteSpace=wrap;html=1;" vertex="1" parent="1">
          <mxGeometry x="780" y="400" width="120" height="60" as="geometry" />
        </mxCell>
        <mxCell id="KXQV2G5C7RftoU8U8lgx-13" style="edgeStyle=none;rounded=0;orthogonalLoop=1;jettySize=auto;html=1;exitX=0.5;exitY=1;exitDx=0;exitDy=0;entryX=0.5;entryY=0;entryDx=0;entryDy=0;" edge="1" parent="1" source="KXQV2G5C7RftoU8U8lgx-12" target="KXQV2G5C7RftoU8U8lgx-9">
          <mxGeometry relative="1" as="geometry" />
        </mxCell>
        <mxCell id="KXQV2G5C7RftoU8U8lgx-12" value="浏览器" style="rounded=1;whiteSpace=wrap;html=1;" vertex="1" parent="1">
          <mxGeometry x="440" y="400" width="120" height="60" as="geometry" />
        </mxCell>
      </root>
    </mxGraphModel>
  </diagram>
</mxfile>
